<?xml version="1.0" standalone="no"?>
<!DOCTYPE svg PUBLIC "-//W3C//DTD SVG 20010904//EN"
 "http://www.w3.org/TR/2001/REC-SVG-20010904/DTD/svg10.dtd">
<svg version="1.0" xmlns="http://www.w3.org/2000/svg"
 width="700.000000pt" height="700.000000pt" viewBox="0 0 700.000000 700.000000"
 preserveAspectRatio="xMidYMid meet">
<metadata>
Created by potrace 1.11, written by Peter Selinger 2001-2013
</metadata>
<g transform="translate(0.000000,700.000000) scale(0.100000,-0.100000)"
fill="#000000" stroke="none">
<path d="M879 6392 c-1 -4 -2 -1325 -3 -2936 l-1 -2928 1055 6 c580 3 1082 8
1115 11 108 9 274 29 325 40 14 3 41 8 60 11 73 14 239 57 324 85 561 185
1036 516 1406 982 140 176 312 466 390 657 12 30 29 69 36 86 37 85 122 372
140 474 45 251 57 371 58 575 0 115 -10 318 -18 360 -2 11 -7 45 -12 75 -4 30
-8 57 -9 60 0 3 -4 28 -9 55 -12 76 -72 310 -104 406 -91 266 -233 541 -399
771 -333 463 -804 827 -1315 1019 -46 17 -92 34 -103 39 -68 31 -375 106 -510
125 -16 2 -66 10 -110 16 -88 14 -2314 24 -2316 11z"/>
</g>
</svg>
