<?xml version="1.0" standalone="no"?>
<!DOCTYPE svg PUBLIC "-//W3C//DTD SVG 20010904//EN"
 "http://www.w3.org/TR/2001/REC-SVG-20010904/DTD/svg10.dtd">
<svg version="1.0" xmlns="http://www.w3.org/2000/svg"
 width="300.000000pt" height="300.000000pt" viewBox="0 0 300.000000 300.000000"
 preserveAspectRatio="xMidYMid meet">
<metadata>
Created by potrace 1.11, written by Peter Selinger 2001-2013
</metadata>
<g transform="translate(0.000000,300.000000) scale(0.100000,-0.100000)"
fill="#000000" stroke="none">
<path d="M1407 2670 c-400 -46 -634 -294 -614 -650 10 -162 53 -265 149 -356
108 -103 248 -159 538 -219 215 -44 268 -58 343 -96 79 -40 140 -99 168 -162
20 -43 24 -69 24 -152 0 -87 -3 -107 -26 -155 -77 -163 -257 -238 -543 -227
-200 8 -370 54 -565 151 -39 20 -73 36 -76 36 -3 0 -5 -65 -5 -144 l0 -143 58
-21 c464 -166 952 -157 1222 23 165 110 240 265 240 499 0 182 -42 303 -144
413 -102 110 -243 176 -486 229 -308 67 -376 85 -430 110 -83 39 -120 71 -149
133 -21 47 -26 70 -25 141 1 108 26 170 95 235 102 95 229 130 444 122 187 -7
277 -31 553 -144 9 -4 12 27 12 135 l0 140 -47 16 c-220 71 -540 108 -736 86z"/>
</g>
</svg>
